<svg fill="none" height="24" viewBox="0 0 24 24" width="24" xmlns="http://www.w3.org/2000/svg"><g fill="#292d32"><path d="m15 22.75h-1c-.41 0-.75-.34-.75-.75s.34-.75.75-.75h1c4.61 0 6.25-1.64 6.25-6.25v-6c0-4.61-1.64-6.25-6.25-6.25h-6c-4.61 0-6.25 1.64-6.25 6.25v.98c0 .41-.34.75-.75.75s-.75-.34-.75-.75v-.98c0-5.43 2.32-7.75 7.75-7.75h6c5.43 0 7.75 2.32 7.75 7.75v6c0 5.43-2.32 7.75-7.75 7.75z"/><path d="m12.9995 11.7502c-.19 0-.38-.07-.53-.22-.29-.29-.29-.77 0-1.06l3.74-3.74999h-2.21c-.41 0-.75-.34-.75-.75s.33-.75.75-.75h4.01c.3 0 .58.18.69.46.12.28.05.60001-.16.82001l-5.01 5.02998c-.15.15-.34.22-.53.22z"/><path d="m18.0098 10.7402c-.41 0-.75-.34-.75-.74999v-4.02c0-.41.34-.75.75-.75s.75.34.75.75v4.01c0 .41999-.34.75999-.75.75999z"/><path d="m7.85 22.75h-2.7c-2.66 0-3.9-1.24-3.9-3.9v-2.7c0-2.66 1.24-3.9 3.9-3.9h2.7c2.66 0 3.9 1.24 3.9 3.9v2.7c0 2.66-1.24 3.9-3.9 3.9zm-2.7-9c-1.84 0-2.4.56-2.4 2.4v2.7c0 1.84.56 2.4 2.4 2.4h2.7c1.84 0 2.4-.56 2.4-2.4v-2.7c0-1.84-.56-2.4-2.4-2.4z"/></g></svg>